<?xml version="1.0" encoding="utf-8"?>
<!-- Generator: Adobe Illustrator 16.0.0, SVG Export Plug-In . SVG Version: 6.00 Build 0)  -->
<!DOCTYPE svg PUBLIC "-//W3C//DTD SVG 1.1//EN" "http://www.w3.org/Graphics/SVG/1.1/DTD/svg11.dtd">
<svg version="1.1" id="Layer_1" xmlns="http://www.w3.org/2000/svg" xmlns:xlink="http://www.w3.org/1999/xlink" x="0px" y="0px"
	 width="289.5px" height="260px" viewBox="0 0 289.5 260" enable-background="new 0 0 289.5 260" xml:space="preserve">
<g>
	<g>
		<circle fill="#E0004D" cx="147.356" cy="129.958" r="67.718"/>
		<g>
			<polygon fill="#071D49" points="175.166,155.5 161.763,155.5 141.356,134.5 155.96,134.5 			"/>
			<polygon fill="#FFFFFF" points="117.35,155.5 130.753,155.5 154.36,103.5 139.756,103.5 			"/>
			<polygon fill="#071D49" points="176.767,155.5 163.362,155.5 139.756,103.5 154.36,103.5 			"/>
		</g>
		<circle fill="none" stroke="#FFFFFF" stroke-width="6.3227" stroke-miterlimit="10" cx="147.356" cy="129.958" r="55.374"/>
	</g>
	<g>
		<g>
			<path fill="none" stroke="#071D49" stroke-miterlimit="10" d="M36.458,132.281c-1.351-47.596,28.333-92.454,75.849-108.235"/>
			<g>
				<polygon fill="#071D49" points="41.409,130.554 36.896,139.445 31.451,131.091 				"/>
			</g>
		</g>
	</g>
	<g>
		<g>
			<path fill="none" stroke="#071D49" stroke-linecap="round" stroke-linejoin="round" d="M257.83,135.878
				c-2.671,43.845-31.452,83.741-75.689,98.433c-41.917,13.922-86.251,1.408-114.923-28.472"/>
			<g>
				<polygon fill="#071D49" points="252.746,137.159 258.032,128.705 262.712,137.51 				"/>
			</g>
		</g>
	</g>
	<path fill="none" stroke="#071D49" stroke-linecap="round" stroke-miterlimit="10" d="M112.307,24.046
		c51.667-17.16,107.005,5.842,132.159,52.026"/>
	<g>
		<path fill="none" stroke="#071D49" stroke-width="1.2728" stroke-miterlimit="10" d="M25.337,164.428
			c-3.833,11.543,2.416,24.008,13.958,27.842c11.542,3.833,24.007-2.416,27.84-13.96c3.833-11.54-2.417-24.006-13.958-27.84
			C41.635,146.637,29.17,152.887,25.337,164.428z"/>
		<g>
			<path fill="#071D49" d="M58.164,157.172c-1.568,0.001-0.321,3.287,0.776,6.301c1.097,3.009,1.697,4.786,2.938,4.63
				c0.815-0.195,1.007-3.105-0.28-6.166C60.354,158.98,58.722,157.172,58.164,157.172z"/>
			<path fill="#071D49" d="M50.731,157.389c-2.104,0-1.308,3.544-0.401,6.62c0.908,3.07,2.326,4.867,3.574,4.789
				c1.541-0.276,1.877-3.21,0.783-6.345C53.631,159.426,51.887,157.389,50.731,157.389z"/>
			<path fill="#FFFFFF" d="M51.018,158.479c-0.966,0.104-0.681,1.069-0.417,1.965c0.265,0.896,0.889,1.322,1.465,1.237
				c0.72-0.161,0.863-0.943,0.517-1.848C52.247,158.96,51.547,158.422,51.018,158.479z"/>
			<path fill="#FFFFFF" d="M58.585,158.391c-0.466,0.092-0.238,0.816,0.102,1.59c0.109,0.248,0.629,1.236,1.307,1.122
				c0.323-0.09,0.293-0.723-0.191-1.555C59.39,158.838,58.797,158.346,58.585,158.391z"/>
		</g>
		<path fill="#071D49" d="M60.829,171.096c0.098,1.057-0.301,2.541-1.564,3.211c-1.739,0.92-2.783-0.97-2.783-0.97
			s-1.226-1.639-0.178-2.241C57.352,170.494,60.715,169.877,60.829,171.096z"/>
	</g>
	<g>
		<circle fill="none" stroke="#071D49" stroke-width="1.0147" stroke-miterlimit="10" cx="253.236" cy="102.369" r="17.556"/>
		<g>
			<path fill="#071D49" d="M239.723,96.376c1.124-0.548,1.38,2.242,1.65,4.785c0.268,2.539,0.46,4.022-0.484,4.344
				c-0.652,0.146-1.809-1.871-1.958-4.514C238.788,98.438,239.323,96.571,239.723,96.376z"/>
			<path fill="#071D49" d="M245.123,93.929c1.507-0.737,2.177,2.081,2.605,4.602c0.424,2.517,0.038,4.3-0.884,4.681
				c-1.201,0.342-2.468-1.642-2.782-4.27C243.759,96.403,244.295,94.334,245.123,93.929z"/>
			<path fill="#FFFFFF" d="M245.299,94.811c0.728-0.264,0.862,0.528,0.987,1.262c0.124,0.734-0.174,1.258-0.616,1.399
				c-0.572,0.137-0.949-0.374-1.017-1.142C244.587,95.585,244.9,94.955,245.299,94.811z"/>
			<path fill="#FFFFFF" d="M239.848,97.396c0.366-0.098,0.456,0.501,0.483,1.174c0.008,0.216-0.018,1.105-0.543,1.261
				c-0.263,0.049-0.463-0.415-0.407-1.18C239.428,97.999,239.681,97.438,239.848,97.396z"/>
		</g>
		<path fill="#071D49" d="M242.688,107.282c0.3,0.791,1.105,1.715,2.245,1.752c1.567,0.05,1.654-1.669,1.654-1.669
			s0.304-1.603-0.657-1.667C244.969,105.634,242.344,106.369,242.688,107.282z"/>
	</g>
</g>
</svg>
